name rise49.8558peak67.6521fall70.3087.mot
datacolumns 19
datarows 29
range 16.83661000000000 16.88326900000000
endheader
time	ground_force1_vx	ground_force1_vy	ground_force1_vz	ground_force1_px	ground_force1_py	ground_force1_pz	ground_force2_vx	ground_force2_vy	ground_force2_vz	ground_force2_px	ground_force2_py	ground_force2_pz	ground_torque1_x	ground_torque1_y	ground_torque1_z	ground_torque2_x	ground_torque2_y	ground_torque2_z	
16.83661000000000	-59.29947800000000	812.91378599999996	66.71769300000000	0.15646500000000	0.00000000000000	0.12056700000000	-1.44588800000000	6.72038100000000	1.97331300000000	0.00000000000000	0.00000000000000	0.00000000000000	0.00000000000000	32.61170700000000	0.00000000000000	0.00000000000000	0.87212400000000	0.00000000000000	
16.83827100000000	-59.16647300000000	809.95378300000004	66.62360099999999	0.15572300000000	0.00000000000000	0.12060400000000	-2.04535300000000	10.83191900000000	2.90584900000000	0.00000000000000	0.00000000000000	0.00000000000000	0.00000000000000	32.42667200000000	0.00000000000000	0.00000000000000	1.28974200000000	0.00000000000000	
16.83994300000000	-59.03733400000000	806.87950499999999	66.50271400000000	0.15497800000000	0.00000000000000	0.12063800000000	-2.69093800000000	15.64877700000000	3.94381800000000	0.00000000000000	0.00000000000000	0.00000000000000	0.00000000000000	32.23665500000000	0.00000000000000	0.00000000000000	1.75619500000000	0.00000000000000	
16.84159900000000	-58.91281600000000	803.69218599999999	66.35477899999999	0.15423200000000	0.00000000000000	0.12067100000000	-3.35820900000000	21.10585800000000	5.05811300000000	0.00000000000000	0.00000000000000	0.00000000000000	0.00000000000000	32.04195700000000	0.00000000000000	0.00000000000000	2.25893900000000	0.00000000000000	
16.84326600000000	-58.79364300000000	800.39305600000000	66.17959300000000	0.15348500000000	0.00000000000000	0.12070100000000	-4.01958600000000	27.11156900000000	6.21430900000000	0.34326500000000	0.00000000000000	-0.07086000000000	0.00000000000000	31.84288800000000	0.00000000000000	0.00000000000000	4.63137700000000	0.00000000000000	
16.84493900000000	-58.68050700000000	796.98333600000001	65.97699799999999	0.15274100000000	0.00000000000000	0.12072800000000	-4.64626700000000	33.55565300000000	7.37520400000000	0.34793900000000	0.00000000000000	-0.07209800000000	0.00000000000000	31.63975800000000	0.00000000000000	0.00000000000000	5.54349100000000	0.00000000000000	
16.84660600000000	-58.57406600000000	793.46422800000005	65.74688500000001	0.15199800000000	0.00000000000000	0.12075200000000	-5.21031000000000	40.31878100000000	8.50364400000000	0.35233000000000	0.00000000000000	-0.07317400000000	0.00000000000000	31.43288300000000	0.00000000000000	0.00000000000000	6.44549800000000	0.00000000000000	
16.84827400000000	-58.47494300000000	789.83691099999999	65.48919500000000	0.15126000000000	0.00000000000000	0.12077300000000	-5.68658600000000	47.28253800000000	9.56525700000000	0.35649200000000	0.00000000000000	-0.07411900000000	0.00000000000000	31.22258100000000	0.00000000000000	0.00000000000000	7.31145900000000	0.00000000000000	
16.84993800000000	-58.38372000000000	786.10253100000000	65.20391600000001	0.15052800000000	0.00000000000000	0.12079100000000	-6.05434700000000	54.33846400000000	10.53074700000000	0.36046600000000	0.00000000000000	-0.07495400000000	0.00000000000000	31.00916700000000	0.00000000000000	0.00000000000000	8.11876200000000	0.00000000000000	
16.85160900000000	-58.30094100000000	782.26220100000000	64.89108800000000	0.14980300000000	0.00000000000000	0.12080500000000	-6.29826700000000	61.39518000000000	11.37750500000000	0.36428300000000	0.00000000000000	-0.07569700000000	0.00000000000000	30.79295700000000	0.00000000000000	0.00000000000000	8.84943600000000	0.00000000000000	
16.85327100000000	-58.22710400000000	778.31698900000004	64.55079700000000	0.14908600000000	0.00000000000000	0.12081500000000	-6.40891100000000	68.38308499999999	12.09045400000000	0.36796600000000	0.00000000000000	-0.07636200000000	0.00000000000000	30.57426200000000	0.00000000000000	0.00000000000000	9.49090900000000	0.00000000000000	
16.85493900000000	-58.16266300000000	774.26792000000000	64.18317999999999	0.14838000000000	0.00000000000000	0.12082100000000	-6.38264800000000	75.25652599999999	12.66215700000000	0.37153500000000	0.00000000000000	-0.07696100000000	0.00000000000000	30.35339000000000	0.00000000000000	0.00000000000000	10.03622000000000	0.00000000000000	
16.85661700000000	-58.10802500000000	770.11596499999996	63.78842400000000	0.14768500000000	0.00000000000000	0.12082300000000	-6.22111700000000	81.99364400000000	13.09227200000000	0.37500300000000	0.00000000000000	-0.07750300000000	0.00000000000000	30.13064000000000	0.00000000000000	0.00000000000000	10.48373800000000	0.00000000000000	
16.85826700000000	-58.06354600000000	765.86204199999997	63.36676100000000	0.14700300000000	0.00000000000000	0.12082000000000	-5.93034500000000	88.59427800000000	13.38652400000000	0.37838400000000	0.00000000000000	-0.07799600000000	0.00000000000000	29.90630400000000	0.00000000000000	0.00000000000000	10.83649200000000	0.00000000000000	
16.85995100000000	-58.02953000000000	761.50700800000004	62.91847500000000	0.14633600000000	0.00000000000000	0.12081200000000	-5.51967300000000	95.07645599999999	13.55536000000000	0.38168400000000	0.00000000000000	-0.07844700000000	0.00000000000000	29.68066600000000	0.00000000000000	0.00000000000000	11.10122800000000	0.00000000000000	
16.86161600000000	-58.00622700000000	757.05166199999996	62.44389500000000	0.14568500000000	0.00000000000000	0.12080000000000	-5.00058600000000	101.47199400000000	13.61244200000000	0.38491300000000	0.00000000000000	-0.07885900000000	0.00000000000000	29.45399400000000	0.00000000000000	0.00000000000000	11.28732600000000	0.00000000000000	
16.86328300000000	-57.99382800000000	752.49673499999994	61.94339700000000	0.14505200000000	0.00000000000000	0.12078200000000	-4.38558400000000	107.82173700000000	13.57314400000000	0.38807400000000	0.00000000000000	-0.07923900000000	0.00000000000000	29.22654800000000	0.00000000000000	0.00000000000000	11.40568000000000	0.00000000000000	
16.86493400000000	-57.99247000000000	747.84289600000000	61.41740300000000	0.14443700000000	0.00000000000000	0.12075900000000	-3.68716400000000	114.17088400000000	13.45316600000000	0.39117300000000	0.00000000000000	-0.07959000000000	0.00000000000000	28.99857100000000	0.00000000000000	0.00000000000000	11.46764700000000	0.00000000000000	
16.86661400000000	-58.00222300000000	743.09074299999997	60.86637900000000	0.14384300000000	0.00000000000000	0.12073100000000	-2.91698100000000	120.56475399999999	13.26736600000000	0.39421300000000	0.00000000000000	-0.07991600000000	0.00000000000000	28.77029000000000	0.00000000000000	0.00000000000000	11.48412800000000	0.00000000000000	
16.86827000000000	-58.02310000000000	738.24080700000002	60.29083600000000	0.14327000000000	0.00000000000000	0.12069700000000	-2.08522300000000	127.04525900000000	13.02885100000000	0.39719600000000	0.00000000000000	-0.08021800000000	0.00000000000000	28.54191600000000	0.00000000000000	0.00000000000000	11.46484100000000	0.00000000000000	
16.86993900000000	-58.05504300000000	733.29354999999998	59.69132500000000	0.14271900000000	0.00000000000000	0.12065800000000	-1.20021100000000	133.64822000000001	12.74836000000000	0.40012400000000	0.00000000000000	-0.08050100000000	0.00000000000000	28.31364200000000	0.00000000000000	0.00000000000000	11.41780600000000	0.00000000000000	
16.87161100000000	-58.09793200000000	728.24936500000001	59.06844000000000	0.14219300000000	0.00000000000000	0.12061200000000	-0.26821100000000	140.40159600000001	12.43394000000000	0.40299900000000	0.00000000000000	-0.08076500000000	0.00000000000000	28.08564200000000	0.00000000000000	0.00000000000000	11.34904400000000	0.00000000000000	
16.87326900000000	-58.15157600000000	723.10857399999998	58.42281300000000	0.14169100000000	0.00000000000000	0.12056100000000	0.70655800000000	147.32458600000001	12.09087200000000	0.40582000000000	0.00000000000000	-0.08101300000000	0.00000000000000	27.85806800000000	0.00000000000000	0.00000000000000	11.26247400000000	0.00000000000000	
16.87493400000000	-58.21571500000000	717.87143500000002	57.75511500000000	0.14121500000000	0.00000000000000	0.12050300000000	1.72176000000000	154.42751699999999	11.72182700000000	0.40858900000000	0.00000000000000	-0.08124700000000	0.00000000000000	27.63105200000000	0.00000000000000	0.00000000000000	11.15999600000000	0.00000000000000	
16.87660500000000	-58.29001400000000	712.53813600000001	57.06605000000000	0.14076600000000	0.00000000000000	0.12043900000000	2.77666600000000	161.71238199999999	11.32718400000000	0.41130500000000	0.00000000000000	-0.08146800000000	0.00000000000000	27.40470600000000	0.00000000000000	0.00000000000000	11.04169900000000	0.00000000000000	
16.87827200000000	-58.37407000000000	707.10880199999997	56.35636100000000	0.14034400000000	0.00000000000000	0.12036900000000	3.87179600000000	169.17387299999999	10.90546000000000	0.41396900000000	0.00000000000000	-0.08167700000000	0.00000000000000	27.17911700000000	0.00000000000000	0.00000000000000	10.90617100000000	0.00000000000000	
16.87993900000000	-58.46740100000000	701.58349999999996	55.62681900000000	0.13995100000000	0.00000000000000	0.12029300000000	5.00853900000000	176.80073500000000	10.45380700000000	0.41657900000000	0.00000000000000	-0.08187600000000	0.00000000000000	26.95435100000000	0.00000000000000	0.00000000000000	10.75087500000000	0.00000000000000	
16.88161200000000	-58.56945500000000	695.96223499999996	54.87822800000000	0.13958600000000	0.00000000000000	0.12021000000000	6.18876100000000	184.57728000000000	9.96851400000000	0.41913600000000	0.00000000000000	-0.08206500000000	0.00000000000000	26.73045100000000	0.00000000000000	0.00000000000000	10.57252900000000	0.00000000000000	
16.88326900000000	-58.67960000000000	690.24496099999999	54.11142000000000	0.13925000000000	0.00000000000000	0.12012000000000	7.41445600000000	192.48492500000000	9.44549100000000	0.42163800000000	0.00000000000000	-0.08224600000000	0.00000000000000	26.50743700000000	0.00000000000000	0.00000000000000	10.36748900000000	0.00000000000000	
